<svg width="1185" height="223" viewBox="0 0 1185 223" fill="none" xmlns="http://www.w3.org/2000/svg">
<path d="M131.641 3.89999L131.373 4.8632L131.641 3.89999ZM155.041 13.5L154.545 14.3682L154.56 14.3765L154.575 14.3844L155.041 13.5ZM184.441 41.7L185.393 42.0082L185.516 41.6278L185.343 41.2673L184.441 41.7ZM177.541 63L176.718 63.5677L177.868 65.2355L178.493 63.3082L177.541 63ZM146.941 35.7L146.455 36.5735L146.463 36.5782L146.472 36.5827L146.941 35.7ZM71.6414 31.5L72.0128 32.4285L71.6414 31.5ZM46.1414 48.6L45.4149 47.9128L46.1414 48.6ZM29.6414 75.6L28.7058 75.2469L28.7021 75.2568L29.6414 75.6ZM29.9414 147.3L29.0036 147.647L29.0058 147.653L29.9414 147.3ZM72.5414 191.4L72.17 192.328L72.1811 192.333L72.1923 192.337L72.5414 191.4ZM137.641 191.7L137.986 192.639L137.995 192.636L138.003 192.632L137.641 191.7ZM163.741 175.2L164.429 175.926L164.741 175.63V175.2H163.741ZM163.741 136.2H164.741V135.2H163.741V136.2ZM104.341 136.2H103.341V137.2H104.341V136.2ZM104.341 111.3V110.3H103.341V111.3H104.341ZM187.441 111.3H188.441V110.3H187.441V111.3ZM187.441 182.1L188.299 182.615L188.441 182.377V182.1H187.441ZM172.741 198.6L173.366 199.381L173.369 199.378L172.741 198.6ZM152.341 211.2L152.759 212.109L152.77 212.104L152.341 211.2ZM128.641 219.3L128.41 218.327L128.404 218.328L128.641 219.3ZM64.1414 214.5L64.5229 213.576L64.1414 214.5ZM31.1414 192.3L30.4197 192.992L30.4269 193L31.1414 192.3ZM8.64141 157.2L7.71192 157.569L7.71673 157.581L8.64141 157.2ZM8.64141 66L7.71477 65.624L7.71199 65.631L8.64141 66ZM31.1414 30.9L31.856 31.5997L31.8631 31.5922L31.1414 30.9ZM64.1414 8.39999L64.5229 9.32446L64.5353 9.31914L64.1414 8.39999ZM104.341 1.29999C113.857 1.29999 122.866 2.48937 131.373 4.8632L131.91 2.9368C123.216 0.510612 114.025 -0.700012 104.341 -0.700012V1.29999ZM131.373 4.8632C139.902 7.24337 147.624 10.4132 154.545 14.3682L155.538 12.6317C148.459 8.58673 140.581 5.35661 131.91 2.9368L131.373 4.8632ZM154.575 14.3844C161.699 18.1446 167.715 22.4877 172.634 27.4071L174.049 25.9929C168.968 20.9123 162.784 16.4554 155.508 12.6156L154.575 14.3844ZM172.634 27.4071C177.575 32.3482 181.2 37.2581 183.54 42.1327L185.343 41.2673C182.883 36.1419 179.107 31.0518 174.049 25.9929L172.634 27.4071ZM183.49 41.3918L176.59 62.6918L178.493 63.3082L185.393 42.0082L183.49 41.3918ZM178.365 62.4323C170.274 50.7009 159.953 41.4927 147.411 34.8173L146.472 36.5827C158.73 43.1073 168.809 52.0991 176.718 63.5677L178.365 62.4323ZM147.428 34.8265C135.061 27.9331 120.889 24.5 104.941 24.5V26.5C120.594 26.5 134.422 29.8668 146.455 36.5735L147.428 34.8265ZM104.941 24.5C92.631 24.5 81.4028 26.5184 71.27 30.5715L72.0128 32.4285C81.8801 28.4816 92.8519 26.5 104.941 26.5V24.5ZM71.27 30.5715C61.1435 34.6221 52.5201 40.4016 45.4149 47.9128L46.8679 49.2872C53.7627 41.9984 62.1394 36.3778 72.0128 32.4285L71.27 30.5715ZM45.4149 47.9128C38.314 55.4195 32.7474 64.5367 28.7058 75.2469L30.577 75.953C34.5354 65.4633 39.9688 56.5805 46.8679 49.2872L45.4149 47.9128ZM28.7021 75.2568C24.8556 85.7841 22.9414 97.6029 22.9414 110.7H24.9414C24.9414 97.7971 26.8272 86.2159 30.5807 75.9432L28.7021 75.2568ZM22.9414 110.7C22.9414 124.398 24.9558 136.718 29.0037 147.647L30.8792 146.953C26.927 136.282 24.9414 124.202 24.9414 110.7H22.9414ZM29.0058 147.653C33.0496 158.369 38.7199 167.49 46.0247 174.997L47.4581 173.603C40.3629 166.31 34.8332 157.431 30.877 146.947L29.0058 147.653ZM46.0247 174.997C53.3266 182.502 62.0457 188.279 72.17 192.328L72.9128 190.472C63.0371 186.521 54.5563 180.898 47.4581 173.603L46.0247 174.997ZM72.1923 192.337C82.5149 196.183 93.7344 198.1 105.841 198.1V196.1C93.9484 196.1 82.968 194.217 72.8905 190.463L72.1923 192.337ZM105.841 198.1C117.348 198.1 128.066 196.283 137.986 192.639L137.297 190.761C127.617 194.317 117.135 196.1 105.841 196.1V198.1ZM138.003 192.632C147.924 188.786 156.734 183.216 164.429 175.926L163.054 174.474C155.548 181.584 146.959 187.014 137.28 190.768L138.003 192.632ZM164.741 175.2L164.741 136.2H162.741L162.741 175.2H164.741ZM163.741 135.2H104.341V137.2H163.741V135.2ZM105.341 136.2V111.3H103.341V136.2H105.341ZM104.341 112.3L187.441 112.3V110.3L104.341 110.3V112.3ZM186.441 111.3L186.441 182.1H188.441L188.441 111.3H186.441ZM186.584 181.586C183.052 187.472 178.235 192.885 172.114 197.822L173.369 199.378C179.648 194.315 184.631 188.728 188.299 182.615L186.584 181.586ZM172.117 197.819C166.183 202.566 159.45 206.726 151.913 210.296L152.77 212.104C160.433 208.474 167.3 204.234 173.366 199.381L172.117 197.819ZM151.924 210.291C144.587 213.662 136.75 216.341 128.41 218.327L128.873 220.273C137.333 218.258 145.296 215.538 152.759 212.109L151.924 210.291ZM128.404 218.328C120.278 220.311 112.257 221.3 104.341 221.3V223.3C112.426 223.3 120.605 222.289 128.878 220.272L128.404 218.328ZM104.341 221.3C90.2667 221.3 76.9969 218.724 64.5229 213.576L63.7599 215.424C76.4859 220.676 90.0161 223.3 104.341 223.3V221.3ZM64.5229 213.576C52.0461 208.426 41.1599 201.102 31.8559 191.6L30.4269 193C39.923 202.698 51.0367 210.174 63.7599 215.424L64.5229 213.576ZM31.8631 191.608C22.5566 181.905 15.1225 170.313 9.56609 156.819L7.71673 157.581C13.3604 171.287 20.9262 183.095 30.4197 192.992L31.8631 191.608ZM9.57082 156.831C4.22383 143.364 1.54141 128.292 1.54141 111.6H-0.458591C-0.458591 128.508 2.25898 143.836 7.71199 157.569L9.57082 156.831ZM1.54141 111.6C1.54141 94.9078 4.22383 79.8355 9.57082 66.369L7.71199 65.631C2.25898 79.3645 -0.458591 94.6921 -0.458591 111.6H1.54141ZM9.56802 66.376C15.1244 52.6835 22.5564 41.097 31.8559 31.5996L30.4269 30.2004C20.9264 39.903 13.3584 51.7164 7.71479 65.624L9.56802 66.376ZM31.8631 31.5922C41.1667 21.8928 52.0507 14.4716 64.5229 9.32437L63.7599 7.47562C51.0322 12.7283 39.9162 20.3072 30.4197 30.2078L31.8631 31.5922ZM64.5353 9.31914C77.0064 3.9744 90.2719 1.29999 104.341 1.29999V-0.700012C90.0109 -0.700012 76.4765 2.02558 63.7475 7.48085L64.5353 9.31914ZM226.01 3.59998V2.59998H225.01V3.59998H226.01ZM339.71 3.59998H340.71V2.59998H339.71V3.59998ZM339.71 28.5V29.5H340.71V28.5H339.71ZM249.41 28.5V27.5H248.41V28.5H249.41ZM249.41 95.7H248.41V96.7H249.41V95.7ZM330.71 95.7H331.71V94.7H330.71V95.7ZM330.71 120.6V121.6H331.71V120.6H330.71ZM249.41 120.6V119.6H248.41V120.6H249.41ZM249.41 194.1H248.41V195.1H249.41V194.1ZM339.71 194.1H340.71V193.1H339.71V194.1ZM339.71 219V220H340.71V219H339.71ZM226.01 219H225.01V220H226.01V219ZM226.01 4.59998L339.71 4.59998V2.59998L226.01 2.59998V4.59998ZM338.71 3.59998V28.5H340.71V3.59998H338.71ZM339.71 27.5L249.41 27.5V29.5L339.71 29.5V27.5ZM248.41 28.5V95.7H250.41V28.5H248.41ZM249.41 96.7H330.71V94.7H249.41V96.7ZM329.71 95.7V120.6H331.71V95.7H329.71ZM330.71 119.6H249.41V121.6H330.71V119.6ZM248.41 120.6V194.1H250.41V120.6H248.41ZM249.41 195.1H339.71V193.1H249.41V195.1ZM338.71 194.1V219H340.71V194.1H338.71ZM339.71 218H226.01V220H339.71V218ZM227.01 219V3.59998H225.01V219H227.01ZM377.885 3.59998V2.59998H376.885V3.59998H377.885ZM480.485 18.3L479.857 19.0784L479.865 19.0846L479.873 19.0907L480.485 18.3ZM495.185 36.9L494.281 37.3281L494.288 37.3425L494.296 37.3568L495.185 36.9ZM496.985 85.5L496.055 85.1335L496.05 85.1458L496.045 85.1582L496.985 85.5ZM486.785 102.9L486.034 102.239L486.027 102.248L486.019 102.257L486.785 102.9ZM471.485 115.5L471.956 116.382L471.967 116.376L471.978 116.37L471.485 115.5ZM451.985 122.4L451.789 121.419L450.449 121.687L451.11 122.884L451.985 122.4ZM505.385 219V220H507.081L506.26 218.516L505.385 219ZM477.785 219L476.909 219.482L477.194 220H477.785V219ZM426.185 125.1L427.062 124.618L426.777 124.1H426.185V125.1ZM401.285 125.1V124.1H400.285V125.1H401.285ZM401.285 219V220H402.285V219H401.285ZM377.885 219H376.885V220H377.885V219ZM401.285 28.5V27.5H400.285V28.5H401.285ZM401.285 100.2H400.285V101.2H401.285V100.2ZM452.885 97.8L453.201 98.7487L452.885 97.8ZM465.485 90.9L466.125 91.6682L465.485 90.9ZM473.885 79.8L472.991 79.3528L472.982 79.3693L472.975 79.3862L473.885 79.8ZM467.585 38.7L466.857 39.3854L467.585 38.7ZM377.885 4.59998H435.785V2.59998H377.885V4.59998ZM435.785 4.59998C443.683 4.59998 451.484 5.78448 459.191 8.15577L459.779 6.24421C451.886 3.81549 443.887 2.59998 435.785 2.59998V4.59998ZM459.191 8.15577C466.873 10.5193 473.759 14.1602 479.857 19.0784L481.113 17.5216C474.812 12.4398 467.698 8.68066 459.779 6.24421L459.191 8.15577ZM479.873 19.0907C485.94 23.7875 490.744 29.8596 494.281 37.3281L496.089 36.4719C492.427 28.7403 487.431 22.4124 481.097 17.5093L479.873 19.0907ZM494.296 37.3568C498.008 44.587 499.885 53.2235 499.885 63.3H501.885C501.885 52.9765 499.962 44.013 496.075 36.4432L494.296 37.3568ZM499.885 63.3C499.885 71.3938 498.602 78.6669 496.055 85.1335L497.916 85.8665C500.568 79.1331 501.885 71.6061 501.885 63.3H499.885ZM496.045 85.1582C493.686 91.6476 490.348 97.338 486.034 102.239L487.536 103.561C492.023 98.462 495.485 92.5524 497.925 85.8417L496.045 85.1582ZM486.019 102.257C481.9 107.161 476.894 111.285 470.992 114.63L471.978 116.37C478.076 112.915 483.27 108.639 487.551 103.543L486.019 102.257ZM471.015 114.618C465.105 117.769 458.698 120.038 451.789 121.419L452.181 123.381C459.272 121.962 465.865 119.631 471.956 116.382L471.015 114.618ZM451.11 122.884L504.51 219.484L506.26 218.516L452.86 121.916L451.11 122.884ZM505.385 218H477.785V220H505.385V218ZM478.662 218.518L427.062 124.618L425.309 125.582L476.909 219.482L478.662 218.518ZM426.185 124.1H401.285V126.1H426.185V124.1ZM400.285 125.1V219H402.285V125.1H400.285ZM401.285 218H377.885V220H401.285V218ZM378.885 219V3.59998H376.885V219H378.885ZM400.285 28.5V100.2H402.285V28.5H400.285ZM401.285 101.2H437.885V99.2H401.285V101.2ZM437.885 101.2C443.19 101.2 448.297 100.384 453.201 98.7487L452.569 96.8513C447.874 98.4164 442.981 99.2 437.885 99.2V101.2ZM453.201 98.7487C458.11 97.1124 462.422 94.7542 466.125 91.6682L464.845 90.1318C461.348 93.0458 457.26 95.2876 452.569 96.8513L453.201 98.7487ZM466.125 91.6682C469.845 88.5688 472.735 84.7463 474.796 80.2138L472.975 79.3862C471.035 83.6537 468.326 87.2312 464.845 90.1318L466.125 91.6682ZM474.78 80.2472C477.06 75.6856 478.185 70.4276 478.185 64.5H476.185C476.185 70.1724 475.11 75.1144 472.991 79.3528L474.78 80.2472ZM478.185 64.5C478.185 53.8767 474.908 45.0218 468.313 38.0146L466.857 39.3854C473.062 45.9782 476.185 54.3233 476.185 64.5H478.185ZM468.313 38.0146C461.702 30.9899 453.026 27.5 442.385 27.5V29.5C452.544 29.5 460.668 32.8101 466.857 39.3854L468.313 38.0146ZM442.385 27.5H401.285V29.5H442.385V27.5ZM637.27 105L636.666 104.203L635.297 105.242L636.876 105.919L637.27 105ZM658.57 123.6L657.735 124.15L657.74 124.157L657.744 124.163L658.57 123.6ZM662.77 182.7L661.845 182.32L662.77 182.7ZM649.27 202.5L648.589 201.768L648.582 201.774L648.576 201.78L649.27 202.5ZM628.87 214.8L629.201 215.744L628.87 214.8ZM537.67 219H536.67V220H537.67V219ZM537.67 3.59998V2.59998H536.67V3.59998H537.67ZM617.77 7.79998L617.44 8.74384L617.451 8.74755L617.461 8.75101L617.77 7.79998ZM638.17 19.2L637.504 19.9459L637.511 19.9517L637.517 19.9574L638.17 19.2ZM651.67 37.8L650.752 38.1969L650.757 38.2061L651.67 37.8ZM651.07 87.9L650.181 87.4427L650.176 87.4528L650.171 87.4631L651.07 87.9ZM620.77 191.4L620.406 190.469L620.77 191.4ZM632.77 183.9L633.456 184.628L633.457 184.627L632.77 183.9ZM641.17 172.2L642.081 172.614L642.084 172.606L642.087 172.599L641.17 172.2ZM641.17 143.4L640.245 143.779L640.252 143.796L640.26 143.814L641.17 143.4ZM633.37 131.7L632.642 132.385L632.653 132.396L632.663 132.407L633.37 131.7ZM621.37 123.6L620.972 124.517L620.979 124.52L620.986 124.523L621.37 123.6ZM561.07 120.6V119.6H560.07V120.6H561.07ZM561.07 194.1H560.07V195.1H561.07V194.1ZM561.07 95.7H560.07V96.7H561.07V95.7ZM622.87 87L623.519 87.7608L623.526 87.7554L623.532 87.7498L622.87 87ZM630.37 49.2L631.289 48.8061L630.37 49.2ZM622.87 38.4L622.163 39.1071L622.175 39.1185L622.186 39.1295L622.87 38.4ZM561.07 28.5V27.5H560.07V28.5H561.07ZM636.876 105.919C645.07 109.431 652.026 115.488 657.735 124.15L659.405 123.05C653.514 114.112 646.271 107.769 637.664 104.081L636.876 105.919ZM657.744 124.163C663.61 132.766 666.57 143.36 666.57 156H668.57C668.57 143.04 665.531 132.034 659.397 123.037L657.744 124.163ZM666.57 156C666.57 165.894 664.987 174.661 661.845 182.32L663.695 183.08C666.953 175.139 668.57 166.106 668.57 156H666.57ZM661.845 182.32C658.696 189.995 654.276 196.473 648.589 201.768L649.952 203.232C655.864 197.727 660.444 191.005 663.695 183.08L661.845 182.32ZM648.576 201.78C643.089 207.071 636.416 211.099 628.54 213.856L629.201 215.744C637.324 212.901 644.252 208.729 649.964 203.22L648.576 201.78ZM628.54 213.856C620.659 216.614 611.973 218 602.47 218V220C612.168 220 621.081 218.586 629.201 215.744L628.54 213.856ZM602.47 218H537.67V220H602.47V218ZM538.67 219V3.59998H536.67V219H538.67ZM537.67 4.59998H591.37V2.59998H537.67V4.59998ZM591.37 4.59998C600.873 4.59998 609.559 5.98558 617.44 8.74384L618.101 6.85612C609.981 4.01439 601.068 2.59998 591.37 2.59998V4.59998ZM617.461 8.75101C625.345 11.3133 632.02 15.0488 637.504 19.9459L638.836 18.4541C633.121 13.3511 626.195 9.48665 618.079 6.84895L617.461 8.75101ZM637.517 19.9574C643.197 24.8536 647.609 30.928 650.752 38.1969L652.588 37.4031C649.331 29.872 644.744 23.5464 638.823 18.4426L637.517 19.9574ZM650.757 38.2061C653.891 45.2586 655.47 53.3167 655.47 62.4H657.47C657.47 53.0833 655.85 44.7414 652.584 37.3939L650.757 38.2061ZM655.47 62.4C655.47 72.2828 653.691 80.6172 650.181 87.4427L651.96 88.3573C655.649 81.1828 657.47 72.5172 657.47 62.4H655.47ZM650.171 87.4631C646.835 94.3316 642.332 99.9048 636.666 104.203L637.875 105.797C643.809 101.295 648.506 95.4684 651.97 88.3369L650.171 87.4631ZM606.37 195.1C611.493 195.1 616.417 194.177 621.135 192.331L620.406 190.469C615.923 192.223 611.247 193.1 606.37 193.1V195.1ZM621.135 192.331C625.847 190.487 629.957 187.921 633.456 184.628L632.085 183.172C628.783 186.279 624.894 188.713 620.406 190.469L621.135 192.331ZM633.457 184.627C637.149 181.14 640.026 177.135 642.081 172.614L640.26 171.786C638.315 176.065 635.592 179.86 632.084 183.173L633.457 184.627ZM642.087 172.599C644.146 167.864 645.17 162.727 645.17 157.2H643.17C643.17 162.473 642.194 167.336 640.253 171.801L642.087 172.599ZM645.17 157.2C645.17 152.256 644.139 147.515 642.081 142.986L640.26 143.814C642.201 148.085 643.17 152.544 643.17 157.2H645.17ZM642.096 143.021C640.245 138.497 637.57 134.486 634.077 130.993L632.663 132.407C635.97 135.714 638.496 139.503 640.245 143.779L642.096 143.021ZM634.099 131.015C630.792 127.501 626.67 124.725 621.755 122.677L620.986 124.523C625.671 126.475 629.549 129.099 632.642 132.385L634.099 131.015ZM621.769 122.683C617.034 120.624 611.897 119.6 606.37 119.6V121.6C611.644 121.6 616.507 122.576 620.972 124.517L621.769 122.683ZM606.37 119.6H561.07V121.6H606.37V119.6ZM560.07 120.6V194.1H562.07V120.6H560.07ZM561.07 195.1H606.37V193.1H561.07V195.1ZM561.07 96.7H597.37V94.7H561.07V96.7ZM597.37 96.7C607.773 96.7 616.513 93.7369 623.519 87.7608L622.221 86.2392C615.628 91.8631 607.368 94.7 597.37 94.7V96.7ZM623.532 87.7498C630.575 81.5351 634.07 73.147 634.07 62.7H632.07C632.07 72.653 628.765 80.4649 622.209 86.2502L623.532 87.7498ZM634.07 62.7C634.07 57.7715 633.146 53.1368 631.289 48.8061L629.451 49.5939C631.195 53.6632 632.07 58.0285 632.07 62.7H634.07ZM631.289 48.8061C629.437 44.4846 626.859 40.7688 623.554 37.6704L622.186 39.1295C625.281 42.0311 627.703 45.5154 629.451 49.5939L631.289 48.8061ZM623.577 37.6929C620.473 34.5883 616.657 32.1187 612.149 30.2744L611.392 32.1255C615.684 33.8813 619.268 36.2117 622.163 39.1071L623.577 37.6929ZM612.149 30.2744C607.618 28.4208 602.688 27.5 597.37 27.5V29.5C602.453 29.5 607.123 30.3791 611.392 32.1255L612.149 30.2744ZM597.37 27.5H561.07V29.5H597.37V27.5ZM560.07 28.5V95.7H562.07V28.5H560.07ZM703.608 3.59998V2.59998H702.608V3.59998H703.608ZM817.308 3.59998H818.308V2.59998H817.308V3.59998ZM817.308 28.5V29.5H818.308V28.5H817.308ZM727.008 28.5V27.5H726.008V28.5H727.008ZM727.008 95.7H726.008V96.7H727.008V95.7ZM808.308 95.7H809.308V94.7H808.308V95.7ZM808.308 120.6V121.6H809.308V120.6H808.308ZM727.008 120.6V119.6H726.008V120.6H727.008ZM727.008 194.1H726.008V195.1H727.008V194.1ZM817.308 194.1H818.308V193.1H817.308V194.1ZM817.308 219V220H818.308V219H817.308ZM703.608 219H702.608V220H703.608V219ZM703.608 4.59998L817.308 4.59998V2.59998L703.608 2.59998V4.59998ZM816.308 3.59998V28.5H818.308V3.59998H816.308ZM817.308 27.5L727.008 27.5V29.5L817.308 29.5V27.5ZM726.008 28.5V95.7H728.008V28.5H726.008ZM727.008 96.7H808.308V94.7H727.008V96.7ZM807.308 95.7V120.6H809.308V95.7H807.308ZM808.308 119.6H727.008V121.6H808.308V119.6ZM726.008 120.6V194.1H728.008V120.6H726.008ZM727.008 195.1H817.308V193.1H727.008V195.1ZM816.308 194.1V219H818.308V194.1H816.308ZM817.308 218H703.608V220H817.308V218ZM704.608 219V3.59998H702.608V219H704.608ZM855.483 3.59998V2.59998H854.483V3.59998H855.483ZM958.083 18.3L957.455 19.0784L957.463 19.0846L957.471 19.0907L958.083 18.3ZM972.783 36.9L971.879 37.3281L971.886 37.3425L971.893 37.3568L972.783 36.9ZM974.583 85.5L973.652 85.1335L973.648 85.1458L973.643 85.1582L974.583 85.5ZM964.383 102.9L963.632 102.239L963.625 102.248L963.617 102.257L964.383 102.9ZM949.083 115.5L949.553 116.382L949.565 116.376L949.576 116.37L949.083 115.5ZM929.583 122.4L929.387 121.419L928.046 121.687L928.708 122.884L929.583 122.4ZM982.983 219V220H984.678L983.858 218.516L982.983 219ZM955.383 219L954.506 219.482L954.791 220H955.383V219ZM903.783 125.1L904.659 124.618L904.374 124.1H903.783V125.1ZM878.883 125.1V124.1H877.883V125.1H878.883ZM878.883 219V220H879.883V219H878.883ZM855.483 219H854.483V220H855.483V219ZM878.883 28.5V27.5H877.883V28.5H878.883ZM878.883 100.2H877.883V101.2H878.883V100.2ZM930.483 97.8L930.799 98.7487L930.483 97.8ZM943.083 90.9L943.723 91.6682L943.083 90.9ZM951.483 79.8L950.588 79.3528L950.58 79.3693L950.572 79.3862L951.483 79.8ZM945.183 38.7L944.455 39.3854L945.183 38.7ZM855.483 4.59998H913.383V2.59998H855.483V4.59998ZM913.383 4.59998C921.281 4.59998 929.082 5.78448 936.789 8.15577L937.377 6.24421C929.484 3.81549 921.484 2.59998 913.383 2.59998V4.59998ZM936.789 8.15577C944.47 10.5193 951.356 14.1602 957.455 19.0784L958.711 17.5216C952.409 12.4398 945.295 8.68066 937.377 6.24421L936.789 8.15577ZM957.471 19.0907C963.537 23.7875 968.341 29.8596 971.879 37.3281L973.687 36.4719C970.024 28.7403 965.028 22.4124 958.695 17.5093L957.471 19.0907ZM971.893 37.3568C975.606 44.587 977.483 53.2235 977.483 63.3H979.483C979.483 52.9765 977.56 44.013 973.672 36.4432L971.893 37.3568ZM977.483 63.3C977.483 71.3938 976.2 78.6669 973.652 85.1335L975.513 85.8665C978.166 79.1331 979.483 71.6061 979.483 63.3H977.483ZM973.643 85.1582C971.283 91.6476 967.945 97.338 963.632 102.239L965.134 103.561C969.62 98.462 973.082 92.5524 975.523 85.8417L973.643 85.1582ZM963.617 102.257C959.498 107.161 954.492 111.285 948.59 114.63L949.576 116.37C955.674 112.915 960.868 108.639 965.148 103.543L963.617 102.257ZM948.612 114.618C942.703 117.769 936.296 120.038 929.387 121.419L929.779 123.381C936.87 121.962 943.463 119.631 949.553 116.382L948.612 114.618ZM928.708 122.884L982.108 219.484L983.858 218.516L930.458 121.916L928.708 122.884ZM982.983 218H955.383V220H982.983V218ZM956.259 218.518L904.659 124.618L902.906 125.582L954.506 219.482L956.259 218.518ZM903.783 124.1H878.883V126.1H903.783V124.1ZM877.883 125.1V219H879.883V125.1H877.883ZM878.883 218H855.483V220H878.883V218ZM856.483 219V3.59998H854.483V219H856.483ZM877.883 28.5V100.2H879.883V28.5H877.883ZM878.883 101.2H915.483V99.2H878.883V101.2ZM915.483 101.2C920.787 101.2 925.894 100.384 930.799 98.7487L930.167 96.8513C925.471 98.4164 920.578 99.2 915.483 99.2V101.2ZM930.799 98.7487C935.708 97.1124 940.02 94.7542 943.723 91.6682L942.443 90.1318C938.946 93.0458 934.858 95.2876 930.167 96.8513L930.799 98.7487ZM943.723 91.6682C947.442 88.5688 950.333 84.7463 952.393 80.2138L950.572 79.3862C948.633 83.6537 945.923 87.2312 942.443 90.1318L943.723 91.6682ZM952.377 80.2472C954.658 75.6856 955.783 70.4276 955.783 64.5H953.783C953.783 70.1724 952.708 75.1144 950.588 79.3528L952.377 80.2472ZM955.783 64.5C955.783 53.8767 952.506 45.0218 945.911 38.0146L944.455 39.3854C950.66 45.9782 953.783 54.3233 953.783 64.5H955.783ZM945.911 38.0146C939.3 30.9899 930.624 27.5 919.983 27.5V29.5C930.142 29.5 938.266 32.8101 944.455 39.3854L945.911 38.0146ZM919.983 27.5H878.883V29.5H919.983V27.5ZM1184.17 219V220H1185.63L1185.1 218.638L1184.17 219ZM1158.97 219L1158.04 219.364L1158.29 220H1158.97V219ZM1138.57 166.8L1139.5 166.436L1139.25 165.8H1138.57V166.8ZM1037.17 166.8V165.8H1036.48L1036.23 166.441L1037.17 166.8ZM1017.07 219V220H1017.75L1018 219.359L1017.07 219ZM991.868 219L990.937 218.636L990.403 220H991.868V219ZM1076.17 3.59998V2.59998H1075.49L1075.24 3.23553L1076.17 3.59998ZM1100.47 3.59998L1101.4 3.23779L1101.15 2.59998H1100.47V3.59998ZM1047.07 141.9L1046.14 141.538L1045.61 142.9H1047.07V141.9ZM1128.97 141.9V142.9H1130.43L1129.9 141.536L1128.97 141.9ZM1087.87 36.9L1088.8 36.5355L1087.86 34.1478L1086.94 36.5378L1087.87 36.9ZM1184.17 218H1158.97V220H1184.17V218ZM1159.9 218.636L1139.5 166.436L1137.64 167.164L1158.04 219.364L1159.9 218.636ZM1138.57 165.8L1037.17 165.8V167.8L1138.57 167.8V165.8ZM1036.23 166.441L1016.13 218.641L1018 219.359L1038.1 167.159L1036.23 166.441ZM1017.07 218H991.868V220H1017.07V218ZM992.799 219.364L1077.1 3.96443L1075.24 3.23553L990.937 218.636L992.799 219.364ZM1076.17 4.59998H1100.47V2.59998H1076.17V4.59998ZM1099.54 3.96218L1183.24 219.362L1185.1 218.638L1101.4 3.23779L1099.54 3.96218ZM1047.07 142.9L1128.97 142.9V140.9L1047.07 140.9V142.9ZM1129.9 141.536L1088.8 36.5355L1086.94 37.2645L1128.04 142.264L1129.9 141.536ZM1086.94 36.5378L1046.14 141.538L1048 142.262L1088.8 37.2622L1086.94 36.5378Z" fill="white"/>
</svg>
