<svg width="1122" height="303" viewBox="0 0 1122 303" fill="none" xmlns="http://www.w3.org/2000/svg">
<mask id="mask0_342_21" style="mask-type:alpha" maskUnits="userSpaceOnUse" x="0" y="0" width="1632" height="303">
<path d="M140.899 0.151855C153.721 0.151855 165.741 1.78266 176.96 5.04429C188.446 8.03414 198.73 12.1112 207.813 17.2755C217.162 22.4397 225.309 28.4194 232.254 35.2145C239.199 41.7378 244.541 48.5329 248.281 55.5997L236.661 90.2547C232.12 83.7314 226.644 77.4799 220.234 71.5003C213.823 65.5206 206.61 60.3563 198.597 56.0074C190.583 51.6586 181.768 48.2611 172.152 45.8148C162.803 43.0968 152.92 41.7378 142.502 41.7378C127.009 41.7378 112.852 44.3199 100.03 49.4842C87.2085 54.6484 76.2566 61.9871 67.1746 71.5003C58.0926 81.0134 51.0139 92.565 45.9387 106.155C41.1306 119.474 38.7265 134.423 38.7265 151.003C38.7265 168.398 41.2641 183.891 46.3394 197.481C51.6817 211.071 59.0275 222.623 68.3766 232.136C77.7258 241.377 88.8112 248.58 101.633 253.744C114.722 258.637 129.146 261.083 144.906 261.083C159.33 261.083 172.553 258.773 184.573 254.152C196.861 249.532 207.679 242.872 217.028 234.175V188.512H142.903V147.333H254.692V245.998C249.884 254.152 243.473 261.627 235.459 268.422C227.446 275.217 218.497 281.197 208.614 286.361C198.73 291.525 188.046 295.466 176.56 298.184C165.341 301.174 153.721 302.669 141.701 302.669C122.735 302.669 104.705 299.136 87.6092 292.069C70.5136 284.73 55.555 274.537 42.7333 261.491C29.9116 248.172 19.6275 232.272 11.8811 213.789C4.40177 195.307 0.662109 174.65 0.662109 151.818C0.662109 128.987 4.40177 108.33 11.8811 89.847C19.3604 71.0925 29.5109 55.0561 42.3326 41.7378C55.1543 28.4194 69.9794 18.2268 86.8078 11.1599C103.903 3.8212 121.934 0.151855 140.899 0.151855Z" fill="white"/>
<path d="M310.937 5.04429H464.397V46.2225H348.601V126.54H452.376V167.719H348.601V256.598H464.397V297.777H310.937V5.04429Z" fill="white"/>
<path d="M520.573 5.04429H600.308C610.992 5.04429 621.544 6.67512 631.961 9.93677C642.379 13.1984 651.728 18.2268 660.009 25.0219C668.289 31.8169 674.834 40.3787 679.642 50.7073C684.717 61.0358 687.255 73.267 687.255 87.4007C687.255 108.873 681.645 126.405 670.426 139.995C659.207 153.585 644.382 162.69 625.951 167.311L695.669 297.777H651.194L584.281 172.203H558.236V297.777H520.573V5.04429ZM558.236 46.2225V131.025H607.921C619.674 131.025 629.424 127.22 637.17 119.609C645.184 111.999 649.19 101.942 649.19 89.4393C649.19 77.2081 645.317 67.0155 637.571 58.8614C630.091 50.4355 620.208 46.2225 607.921 46.2225H558.236Z" fill="white"/>
<path d="M814.079 5.04429C827.167 5.04429 839.054 6.81102 849.739 10.3445C860.691 13.8779 870.04 19.0422 877.786 25.8373C885.533 32.3606 891.543 40.6506 895.817 50.7073C900.091 60.764 902.228 72.3157 902.228 85.3622C902.228 98.4088 899.957 109.553 895.416 118.794C890.875 127.764 884.731 135.374 876.985 141.626C888.738 147.333 898.354 156.031 905.834 167.719C913.313 179.406 917.053 194.22 917.053 212.159C917.053 226.021 914.782 238.252 910.241 248.852C905.967 259.452 899.824 268.422 891.81 275.761C884.064 282.827 874.714 288.263 863.763 292.069C853.078 295.874 841.325 297.777 828.503 297.777H741.556V5.04429H814.079ZM779.22 168.942V256.598H836.116C841.992 256.598 847.602 255.511 852.944 253.337C858.287 251.162 862.828 248.173 866.567 244.367C870.307 240.562 873.245 235.941 875.382 230.505C877.786 225.069 878.988 219.225 878.988 212.974C878.988 207.266 877.92 201.83 875.783 196.666C873.646 191.23 870.708 186.473 866.968 182.396C863.228 178.319 858.687 175.057 853.345 172.611C848.003 170.165 842.126 168.942 835.715 168.942H779.22ZM779.22 46.2225V127.764H823.294C835.315 127.764 845.198 124.23 852.944 117.163C860.691 109.825 864.564 99.9037 864.564 87.4007C864.564 75.4414 860.824 65.6565 853.345 58.046C845.866 50.1637 835.849 46.2225 823.294 46.2225H779.22Z" fill="white"/>
<path d="M969.191 5.04429H1122.65V46.2225H1006.85V126.54H1110.63V167.719H1006.85V256.598H1122.65V297.777H969.191V5.04429Z" fill="white"/>
<path d="M1178.83 5.04429H1258.56C1269.25 5.04429 1279.8 6.67512 1290.22 9.93677C1300.63 13.1984 1309.98 18.2268 1318.26 25.0219C1326.54 31.8169 1333.09 40.3787 1337.9 50.7073C1342.97 61.0358 1345.51 73.267 1345.51 87.4007C1345.51 108.873 1339.9 126.405 1328.68 139.995C1317.46 153.585 1302.64 162.69 1284.2 167.311L1353.92 297.777H1309.45L1242.53 172.203H1216.49V297.777H1178.83V5.04429ZM1216.49 46.2225V131.025H1266.17C1277.93 131.025 1287.68 127.22 1295.42 119.609C1303.44 111.999 1307.44 101.942 1307.44 89.4393C1307.44 77.2081 1303.57 67.0155 1295.82 58.8614C1288.35 50.4355 1278.46 46.2225 1266.17 46.2225H1216.49Z" fill="white"/>
<path d="M1631 297.777H1590.93L1564.89 230.505H1435.07L1409.43 297.777H1368.16L1479.54 5.04429H1520.01L1631 297.777ZM1450.7 189.327H1549.26L1499.58 60.4922L1450.7 189.327Z" fill="white"/>
</mask>
<g mask="url(#mask0_342_21)">
<g filter="url(#filter0_f_342_21)">
<path d="M305.75 1027.53C-219.17 739.178 -414.976 72.4308 -131.595 -461.693C151.786 -995.818 807.044 -1195.06 1331.96 -906.707C1856.88 -618.357 2052.69 48.3896 1769.31 582.514C1485.93 1116.64 830.67 1315.88 305.75 1027.53Z" fill="#54FFDF"/>
</g>
<g filter="url(#filter1_f_342_21)">
<path d="M127.265 415.235C8.52626 350.01 -35.7657 199.189 28.336 78.3686C92.4377 -42.452 240.659 -87.5206 359.398 -22.2949C478.136 42.9308 522.428 193.751 458.327 314.572C394.225 435.392 246.004 480.461 127.265 415.235Z" fill="white"/>
</g>
<g filter="url(#filter2_f_342_21)">
<path d="M1189.12 274.57C1070.38 209.344 1026.09 58.5238 1090.19 -62.2969C1154.3 -183.118 1302.52 -228.186 1421.26 -162.96C1539.99 -97.7348 1584.29 53.0856 1520.18 173.906C1456.08 294.727 1307.86 339.795 1189.12 274.57Z" fill="white"/>
</g>
</g>
<defs>
<filter id="filter0_f_342_21" x="-411.461" y="-1188.85" width="2460.64" height="2498.52" filterUnits="userSpaceOnUse" color-interpolation-filters="sRGB">
<feFlood flood-opacity="0" result="BackgroundImageFix"/>
<feBlend mode="normal" in="SourceGraphic" in2="BackgroundImageFix" result="shape"/>
<feGaussianBlur stdDeviation="75" result="effect1_foregroundBlur_342_21"/>
</filter>
<filter id="filter1_f_342_21" x="-151.04" y="-202.186" width="788.743" height="797.313" filterUnits="userSpaceOnUse" color-interpolation-filters="sRGB">
<feFlood flood-opacity="0" result="BackgroundImageFix"/>
<feBlend mode="normal" in="SourceGraphic" in2="BackgroundImageFix" result="shape"/>
<feGaussianBlur stdDeviation="75" result="effect1_foregroundBlur_342_21"/>
</filter>
<filter id="filter2_f_342_21" x="910.818" y="-342.852" width="788.743" height="797.313" filterUnits="userSpaceOnUse" color-interpolation-filters="sRGB">
<feFlood flood-opacity="0" result="BackgroundImageFix"/>
<feBlend mode="normal" in="SourceGraphic" in2="BackgroundImageFix" result="shape"/>
<feGaussianBlur stdDeviation="75" result="effect1_foregroundBlur_342_21"/>
</filter>
</defs>
</svg>
