<svg width="889" height="304" viewBox="0 0 889 304" fill="none" xmlns="http://www.w3.org/2000/svg">
<mask id="mask0_342_12" style="mask-type:alpha" maskUnits="userSpaceOnUse" x="-742" y="0" width="1631" height="304">
<path d="M-601.763 0.534668C-588.941 0.534668 -576.921 2.16547 -565.702 5.4271C-554.216 8.41695 -543.932 12.494 -534.85 17.6583C-525.5 22.8225 -517.353 28.8022 -510.408 35.5973C-503.463 42.1206 -498.121 48.9157 -494.381 55.9826L-506.001 90.6375C-510.542 84.1142 -516.018 77.8627 -522.429 71.8831C-528.839 65.9034 -536.052 60.7391 -544.065 56.3903C-552.079 52.0414 -560.894 48.6439 -570.51 46.1976C-579.859 43.4796 -589.742 42.1206 -600.16 42.1206C-615.653 42.1206 -629.81 44.7027 -642.632 49.867C-655.454 55.0312 -666.405 62.3699 -675.487 71.8831C-684.57 81.3962 -691.648 92.9478 -696.723 106.538C-701.532 119.856 -703.936 134.806 -703.936 151.386C-703.936 168.781 -701.398 184.274 -696.323 197.864C-690.98 211.454 -683.635 223.006 -674.285 232.519C-664.936 241.76 -653.851 248.963 -641.029 254.127C-627.94 259.02 -613.516 261.466 -597.756 261.466C-583.332 261.466 -570.109 259.156 -558.089 254.535C-545.801 249.914 -534.983 243.255 -525.634 234.557V188.894H-599.759V147.716H-487.97V246.381C-492.778 254.535 -499.189 262.01 -507.203 268.805C-515.216 275.6 -524.165 281.579 -534.048 286.744C-543.932 291.908 -554.616 295.849 -566.102 298.567C-577.321 301.557 -588.941 303.052 -600.961 303.052C-619.927 303.052 -637.957 299.518 -655.053 292.452C-672.149 285.113 -687.107 274.92 -699.929 261.874C-712.751 248.555 -723.035 232.655 -730.781 214.172C-738.26 195.69 -742 175.032 -742 152.201C-742 129.369 -738.26 108.712 -730.781 90.2298C-723.302 71.4753 -713.151 55.4389 -700.33 42.1206C-687.508 28.8022 -672.683 18.6096 -655.854 11.5427C-638.759 4.20401 -620.728 0.534668 -601.763 0.534668Z" fill="white"/>
<path d="M-431.725 5.4271H-278.266V46.6053H-394.061V126.923H-290.286V168.101H-394.061V256.981H-278.266V298.159H-431.725V5.4271Z" fill="white"/>
<path d="M-222.089 5.4271H-142.354C-131.67 5.4271 -121.119 7.05793 -110.701 10.3196C-100.283 13.5812 -90.9341 18.6096 -82.6535 25.4047C-74.3728 32.1998 -67.8284 40.7616 -63.0203 51.0901C-57.9451 61.4186 -55.4074 73.6498 -55.4074 87.7836C-55.4074 109.256 -61.0168 126.787 -72.2358 140.378C-83.4548 153.968 -98.2799 163.073 -116.711 167.694L-46.9932 298.159H-91.4684L-158.382 172.586H-184.426V298.159H-222.089V5.4271ZM-184.426 46.6053V131.408H-134.742C-122.988 131.408 -113.239 127.603 -105.492 119.992C-97.4785 112.382 -93.4717 102.325 -93.4717 89.8221C-93.4717 77.5909 -97.345 67.3983 -105.091 59.2442C-112.571 50.8183 -122.454 46.6053 -134.742 46.6053H-184.426Z" fill="white"/>
<path d="M71.4165 5.4271C84.5053 5.4271 96.3921 7.19383 107.077 10.7273C118.029 14.2607 127.378 19.425 135.124 26.2201C142.871 32.7434 148.881 41.0334 153.155 51.0901C157.429 61.1468 159.566 72.6985 159.566 85.745C159.566 98.7916 157.295 109.936 152.754 119.177C148.213 128.146 142.069 135.757 134.323 142.008C146.076 147.716 155.692 156.414 163.172 168.101C170.651 179.789 174.391 194.602 174.391 212.541C174.391 226.403 172.12 238.634 167.579 249.235C163.305 259.835 157.161 268.805 149.148 276.143C141.402 283.21 132.052 288.646 121.101 292.452C110.416 296.257 98.6625 298.159 85.8409 298.159H-1.1062V5.4271H71.4165ZM36.5575 169.325V256.981H93.4538C99.3304 256.981 104.94 255.894 110.282 253.72C115.625 251.545 120.166 248.555 123.905 244.75C127.645 240.945 130.583 236.324 132.72 230.888C135.124 225.452 136.326 219.608 136.326 213.357C136.326 207.649 135.258 202.213 133.121 197.049C130.984 191.612 128.046 186.856 124.306 182.779C120.566 178.702 116.025 175.44 110.683 172.994C105.341 170.548 99.4639 169.325 93.0531 169.325H36.5575ZM36.5575 46.6053V128.146H80.632C92.6524 128.146 102.536 124.613 110.282 117.546C118.029 110.207 121.902 100.287 121.902 87.7836C121.902 75.8242 118.162 66.0393 110.683 58.4288C103.204 50.5465 93.1866 46.6053 80.632 46.6053H36.5575Z" fill="white"/>
<path d="M226.529 5.4271H379.988V46.6053H264.193V126.923H367.968V168.101H264.193V256.981H379.988V298.159H226.529V5.4271Z" fill="white"/>
<path d="M436.165 5.4271H515.9C526.584 5.4271 537.135 7.05793 547.553 10.3196C557.971 13.5812 567.32 18.6096 575.6 25.4047C583.881 32.1998 590.426 40.7616 595.234 51.0901C600.309 61.4186 602.847 73.6498 602.847 87.7836C602.847 109.256 597.237 126.787 586.018 140.378C574.799 153.968 559.974 163.073 541.543 167.694L611.261 298.159H566.786L499.872 172.586H473.828V298.159H436.165V5.4271ZM473.828 46.6053V131.408H523.512C535.266 131.408 545.016 127.603 552.762 119.992C560.776 112.382 564.782 102.325 564.782 89.8221C564.782 77.5909 560.909 67.3983 553.163 59.2442C545.683 50.8183 535.8 46.6053 523.512 46.6053H473.828Z" fill="white"/>
<path d="M888.339 298.159H848.271L822.227 230.888H692.407L666.764 298.159H625.494L736.883 5.4271H777.351L888.339 298.159ZM708.034 189.71H806.601L756.917 60.875L708.034 189.71Z" fill="white"/>
</mask>
<g mask="url(#mask0_342_12)">
<g filter="url(#filter0_f_342_12)">
<path d="M-436.912 1027.91C-961.832 739.56 -1157.64 72.8131 -874.257 -461.311C-590.876 -995.435 64.3811 -1194.67 589.301 -906.325C1114.22 -617.975 1310.03 48.7719 1026.65 582.896C743.265 1117.02 88.0079 1316.26 -436.912 1027.91Z" fill="#54FFDF"/>
</g>
<g filter="url(#filter1_f_342_12)">
<path d="M446.461 274.952C327.723 209.726 283.431 58.9058 347.532 -61.9148C411.634 -182.735 559.855 -227.804 678.594 -162.578C797.333 -97.3527 841.625 53.4677 777.523 174.288C713.421 295.109 565.2 340.178 446.461 274.952Z" fill="white"/>
</g>
</g>
<defs>
<filter id="filter0_f_342_12" x="-1154.12" y="-1188.47" width="2460.64" height="2498.52" filterUnits="userSpaceOnUse" color-interpolation-filters="sRGB">
<feFlood flood-opacity="0" result="BackgroundImageFix"/>
<feBlend mode="normal" in="SourceGraphic" in2="BackgroundImageFix" result="shape"/>
<feGaussianBlur stdDeviation="75" result="effect1_foregroundBlur_342_12"/>
</filter>
<filter id="filter1_f_342_12" x="168.156" y="-342.47" width="788.743" height="797.313" filterUnits="userSpaceOnUse" color-interpolation-filters="sRGB">
<feFlood flood-opacity="0" result="BackgroundImageFix"/>
<feBlend mode="normal" in="SourceGraphic" in2="BackgroundImageFix" result="shape"/>
<feGaussianBlur stdDeviation="75" result="effect1_foregroundBlur_342_12"/>
</filter>
</defs>
</svg>
