<svg width="320" height="84" viewBox="0 0 320 84" fill="none" xmlns="http://www.w3.org/2000/svg">
<path d="M228.39 21.3899C217.162 32.6175 217.162 50.821 228.39 62.0485C239.617 73.2761 257.821 73.2761 269.048 62.0486C280.276 50.821 280.276 32.6175 269.049 21.3899C257.821 10.1623 239.617 10.1623 228.39 21.3899Z" stroke="white" stroke-width="1.5"/>
<path d="M257.39 21.3899C246.162 32.6175 246.162 50.821 257.39 62.0485C268.617 73.2761 286.821 73.2761 298.048 62.0486C309.276 50.821 309.276 32.6175 298.049 21.3899C286.821 10.1623 268.617 10.1623 257.39 21.3899Z" fill="white" stroke="white" stroke-width="1.5"/>
<path d="M169.39 21.3899C158.162 32.6175 158.162 50.821 169.39 62.0485C180.617 73.2761 198.821 73.2761 210.048 62.0486C221.276 50.821 221.276 32.6175 210.049 21.3899C198.821 10.1623 180.617 10.1623 169.39 21.3899Z" stroke="white" stroke-width="1.5"/>
<path d="M198.39 21.3899C187.162 32.6175 187.162 50.821 198.39 62.0485C209.617 73.2761 227.821 73.2761 239.048 62.0486C250.276 50.821 250.276 32.6175 239.049 21.3899C227.821 10.1623 209.617 10.1623 198.39 21.3899Z" stroke="white" stroke-width="1.5"/>
<path d="M139.39 21.3899C128.162 32.6175 128.162 50.821 139.39 62.0485C150.617 73.2761 168.821 73.2761 180.048 62.0486C191.276 50.821 191.276 32.6175 180.049 21.3899C168.821 10.1623 150.617 10.1623 139.39 21.3899Z" stroke="white" stroke-width="1.5"/>
<path opacity="0.8" d="M110.39 21.3899C99.1623 32.6175 99.1623 50.821 110.39 62.0485C121.617 73.2761 139.821 73.2761 151.048 62.0486C162.276 50.821 162.276 32.6175 151.049 21.3899C139.821 10.1623 121.617 10.1623 110.39 21.3899Z" stroke="white" stroke-width="1.5"/>
<path opacity="0.5" d="M51.3899 21.3899C40.1623 32.6175 40.1623 50.821 51.3899 62.0485C62.6174 73.2761 80.8209 73.2761 92.0485 62.0486C103.276 50.821 103.276 32.6175 92.0485 21.3899C80.8209 10.1623 62.6174 10.1623 51.3899 21.3899Z" stroke="white" stroke-width="1.5"/>
<path opacity="0.7" d="M80.3899 21.3899C69.1623 32.6175 69.1623 50.821 80.3899 62.0485C91.6174 73.2761 109.821 73.2761 121.048 62.0486C132.276 50.821 132.276 32.6175 121.049 21.3899C109.821 10.1623 91.6174 10.1623 80.3899 21.3899Z" stroke="white" stroke-width="1.5"/>
<path opacity="0.2" d="M21.3899 21.3899C10.1623 32.6175 10.1623 50.821 21.3899 62.0485C32.6174 73.2761 50.8209 73.2761 62.0485 62.0486C73.2761 50.821 73.2761 32.6175 62.0485 21.3899C50.8209 10.1623 32.6174 10.1623 21.3899 21.3899Z" stroke="white" stroke-width="1.5"/>
</svg>
