<svg width="320" height="84" viewBox="0 0 320 84" fill="none" xmlns="http://www.w3.org/2000/svg">
<path d="M91.0486 21.3899C102.276 32.6175 102.276 50.821 91.0486 62.0485C79.821 73.2761 61.6176 73.2761 50.39 62.0486C39.1624 50.821 39.1624 32.6175 50.39 21.3899C61.6175 10.1623 79.821 10.1623 91.0486 21.3899Z" stroke="white" stroke-width="1.5"/>
<path d="M62.0486 21.3899C73.2762 32.6175 73.2762 50.821 62.0486 62.0485C50.821 73.2761 32.6176 73.2761 21.39 62.0486C10.1624 50.821 10.1624 32.6175 21.39 21.3899C32.6175 10.1623 50.821 10.1623 62.0486 21.3899Z" fill="white" stroke="white" stroke-width="1.5"/>
<path d="M150.049 21.3899C161.276 32.6175 161.276 50.821 150.049 62.0485C138.821 73.2761 120.618 73.2761 109.39 62.0486C98.1624 50.821 98.1624 32.6175 109.39 21.3899C120.618 10.1623 138.821 10.1623 150.049 21.3899Z" stroke="white" stroke-width="1.5"/>
<path d="M121.049 21.3899C132.276 32.6175 132.276 50.821 121.049 62.0485C109.821 73.2761 91.6176 73.2761 80.39 62.0486C69.1624 50.821 69.1624 32.6175 80.39 21.3899C91.6175 10.1623 109.821 10.1623 121.049 21.3899Z" stroke="white" stroke-width="1.5"/>
<path d="M180.049 21.3899C191.276 32.6175 191.276 50.821 180.049 62.0485C168.821 73.2761 150.618 73.2761 139.39 62.0486C128.162 50.821 128.162 32.6175 139.39 21.3899C150.618 10.1623 168.821 10.1623 180.049 21.3899Z" stroke="white" stroke-width="1.5"/>
<path opacity="0.8" d="M209.049 21.3899C220.276 32.6175 220.276 50.821 209.049 62.0485C197.821 73.2761 179.618 73.2761 168.39 62.0486C157.162 50.821 157.162 32.6175 168.39 21.3899C179.618 10.1623 197.821 10.1623 209.049 21.3899Z" stroke="white" stroke-width="1.5"/>
<path opacity="0.5" d="M268.049 21.3899C279.276 32.6175 279.276 50.821 268.049 62.0485C256.821 73.2761 238.618 73.2761 227.39 62.0486C216.162 50.821 216.162 32.6175 227.39 21.3899C238.618 10.1623 256.821 10.1623 268.049 21.3899Z" stroke="white" stroke-width="1.5"/>
<path opacity="0.7" d="M239.049 21.3899C250.276 32.6175 250.276 50.821 239.049 62.0485C227.821 73.2761 209.618 73.2761 198.39 62.0486C187.162 50.821 187.162 32.6175 198.39 21.3899C209.618 10.1623 227.821 10.1623 239.049 21.3899Z" stroke="white" stroke-width="1.5"/>
<path opacity="0.2" d="M298.049 21.3899C309.276 32.6175 309.276 50.821 298.049 62.0485C286.821 73.2761 268.618 73.2761 257.39 62.0486C246.162 50.821 246.162 32.6175 257.39 21.3899C268.618 10.1623 286.821 10.1623 298.049 21.3899Z" stroke="white" stroke-width="1.5"/>
</svg>
